# Blender v2.81 (sub 16) OBJ File: 'wiiTank.blend'
# www.blender.org
mtllib tank_brown_chassis.mtl
o tank_body.005_Cube.011
v 23.889437 12.023531 4.086924
v 16.453264 12.023531 10.000000
v -16.453264 12.023531 10.000000
v -23.889437 12.023531 4.086924
v -23.889437 17.394943 4.086924
v -16.453264 17.394943 10.000000
v 16.453264 17.394943 10.000000
v 23.889437 17.394943 4.086924
v 17.834812 12.023531 -10.000000
v 23.889437 12.023531 -6.730645
v -23.889437 12.023531 -6.730645
v -17.834812 12.023531 -10.000000
v -17.834812 17.394943 -10.000000
v -23.889437 17.394943 -6.730645
v 23.889437 17.394943 -6.730645
v 17.834812 17.394943 -10.000000
v -17.036169 12.023531 10.377693
v -24.735790 12.023531 4.255130
v 24.735790 12.023531 4.255130
v 17.036169 12.023531 10.377693
v 18.466663 12.023531 -10.330863
v 24.735790 12.023531 -6.945682
v -24.735790 12.023531 -6.945682
v -18.466663 12.023531 -10.330863
v 17.365826 17.394943 -0.128635
v 15.490731 17.394943 1.199240
v -15.490731 17.394943 1.199240
v -17.365826 17.394943 -0.128635
v 16.143183 17.394943 -6.380409
v 17.365826 17.394943 -5.178288
v -17.365826 17.394943 -5.178288
v -16.143183 17.394943 -6.380409
v 17.365826 17.021547 -0.128635
v 15.490731 17.021547 1.199240
v -15.490731 17.021547 1.199240
v -17.365826 17.021547 -0.128635
v 16.143183 17.021547 -6.380409
v 17.365826 17.021547 -5.178288
v -17.365826 17.021547 -5.178288
v -16.143183 17.021547 -6.380409
v 23.889437 -12.023531 4.086924
v 16.453264 -12.023531 10.000000
v -16.453264 -12.023531 10.000000
v -23.889437 -12.023531 4.086924
v -23.889437 -17.394943 4.086924
v -16.453264 -17.394943 10.000000
v 16.453264 -17.394943 10.000000
v 23.889437 -17.394943 4.086924
v 17.834812 -12.023531 -10.000000
v 23.889437 -12.023531 -6.730645
v -23.889437 -12.023531 -6.730645
v -17.834812 -12.023531 -10.000000
v -17.834812 -17.394943 -10.000000
v -23.889437 -17.394943 -6.730645
v 23.889437 -17.394943 -6.730645
v 17.834812 -17.394943 -10.000000
v -24.735790 0.000000 4.255130
v -17.036169 0.000000 10.377693
v -17.036169 -12.023531 10.377693
v -24.735790 -12.023531 4.255130
v 24.735790 -12.023531 4.255130
v 17.036169 -12.023531 10.377693
v 17.036169 0.000000 10.377693
v 24.735790 0.000000 4.255130
v 24.735790 0.000000 -6.945682
v 18.466663 0.000000 -10.330863
v 18.466663 -12.023531 -10.330863
v 24.735790 -12.023531 -6.945682
v -24.735790 -12.023531 -6.945682
v -18.466663 -12.023531 -10.330863
v -18.466663 0.000000 -10.330863
v -24.735790 0.000000 -6.945682
v 17.365826 -17.394943 -0.128635
v 15.490731 -17.394943 1.199240
v -15.490731 -17.394943 1.199240
v -17.365826 -17.394943 -0.128635
v 16.143183 -17.394943 -6.380409
v 17.365826 -17.394943 -5.178288
v -17.365826 -17.394943 -5.178288
v -16.143183 -17.394943 -6.380409
v 17.365826 -17.021547 -0.128635
v 15.490731 -17.021547 1.199240
v -15.490731 -17.021547 1.199240
v -17.365826 -17.021547 -0.128635
v 16.143183 -17.021547 -6.380409
v 17.365826 -17.021547 -5.178288
v -17.365826 -17.021547 -5.178288
v -16.143183 -17.021547 -6.380409
vt 0.625000 0.527580
vt 0.750000 0.527580
vt 0.750000 0.722420
vt 0.625000 0.722420
vt 0.625000 0.500000
vt 0.750000 0.500000
vt 0.750000 0.750000
vt 0.625000 0.750000
vt 0.375000 0.523810
vt 0.402042 0.500000
vt 0.597420 0.500000
vt 0.625000 0.527580
vt 0.625000 0.722420
vt 0.597420 0.750000
vt 0.402042 0.750000
vt 0.375000 0.726190
vt 0.625000 0.527580
vt 0.625000 0.722420
vt 0.625000 0.500000
vt 0.625000 0.750000
vt 0.375000 0.523810
vt 0.375000 0.726190
vt 0.402042 0.750000
vt 0.597420 0.750000
vt 0.625000 0.722420
vt 0.625000 0.527580
vt 0.597420 0.500000
vt 0.402042 0.500000
vt 0.625000 0.527580
vt 0.625000 0.722420
vt 0.625000 0.722420
vt 0.625000 0.527580
vt 0.375000 0.523810
vt 0.375000 0.726190
vt 0.375000 0.726190
vt 0.375000 0.523810
vt 0.597420 0.750000
vt 0.402042 0.750000
vt 0.402042 0.750000
vt 0.597420 0.750000
vt 0.597420 0.500000
vt 0.402042 0.500000
vt 0.402042 0.500000
vt 0.597420 0.500000
vt 0.597420 0.500000
vt 0.402042 0.500000
vt 0.625000 0.722420
vt 0.625000 0.527580
vt 0.597420 0.750000
vt 0.402042 0.750000
vt 0.375000 0.726190
vt 0.375000 0.523810
vt 0.402042 0.375000
vt 0.597420 0.375000
vt 0.597420 0.875000
vt 0.402042 0.875000
vt 0.250000 0.523810
vt 0.250000 0.726190
vt 0.375000 0.750000
vt 0.250000 0.750000
vt 0.250000 0.500000
vt 0.375000 0.500000
vt 0.597420 0.750000
vt 0.402042 0.750000
vt 0.597420 0.500000
vt 0.402042 0.500000
vt 0.375000 0.726190
vt 0.375000 0.523810
vt 0.625000 0.527580
vt 0.625000 0.527580
vt 0.625000 0.722420
vt 0.625000 0.722420
vt 0.375000 0.523810
vt 0.375000 0.523810
vt 0.375000 0.726190
vt 0.375000 0.726190
vt 0.597420 0.750000
vt 0.597420 0.750000
vt 0.402042 0.750000
vt 0.402042 0.750000
vt 0.597420 0.500000
vt 0.597420 0.500000
vt 0.402042 0.500000
vt 0.402042 0.500000
vt 0.402042 0.500000
vt 0.597420 0.500000
vt 0.625000 0.722420
vt 0.625000 0.527580
vt 0.402042 0.750000
vt 0.597420 0.750000
vt 0.375000 0.726190
vt 0.375000 0.523810
vt 0.375000 0.750000
vt 0.375000 0.500000
vt 0.597420 0.750000
vt 0.402042 0.750000
vt 0.402042 0.500000
vt 0.597420 0.500000
vt 0.375000 0.726190
vt 0.375000 0.523810
vn 0.0000 0.0000 1.0000
vn -0.6224 0.0000 0.7827
vn 0.6224 0.0000 0.7827
vn 0.0000 1.0000 0.0000
vn 0.0000 -1.0000 0.0000
vn 1.0000 0.0000 0.0000
vn -1.0000 0.0000 0.0000
vn 0.4751 0.0000 -0.8799
vn -0.4751 0.0000 -0.8799
vn 0.0000 0.0000 -1.0000
vn 0.7011 0.0000 0.7131
vn -0.5779 0.0000 -0.8161
vn -0.7011 0.0000 0.7131
vn 0.5779 0.0000 -0.8161
usemtl BlackColouration
s off
f 17/1/1 58/2/1 63/3/1 20/4/1
f 58/2/2 17/1/2 18/5/2 57/6/2
f 20/4/3 63/3/3 64/7/3 19/8/3
f 40/9/4 39/10/4 36/11/4 35/12/4 34/13/4 33/14/4 38/15/4 37/16/4
f 59/17/1 62/18/1 63/3/1 58/2/1
f 58/2/2 57/6/2 60/19/2 59/17/2
f 62/18/3 61/20/3 64/7/3 63/3/3
f 88/21/5 85/22/5 86/23/5 81/24/5 82/25/5 83/26/5 84/27/5 87/28/5
usemtl BaigeColouration
f 6/29/4 7/30/4 26/31/4 27/32/4
f 12/33/4 9/34/4 21/35/4 24/36/4
f 1/37/6 10/38/6 15/39/6 8/40/6
f 4/41/4 11/42/4 23/43/4 18/44/4
f 11/42/7 4/41/7 5/45/7 14/46/7
f 2/47/4 3/48/4 17/1/4 20/4/4
f 11/42/4 12/33/4 24/36/4 23/43/4
f 10/38/4 1/37/4 19/49/4 22/50/4
f 9/34/4 10/38/4 22/50/4 21/35/4
f 7/30/3 2/47/3 1/37/3 8/40/3
f 5/45/2 4/41/2 3/48/2 6/29/2
f 3/48/1 2/47/1 7/30/1 6/29/1
f 1/37/4 2/47/4 20/4/4 19/49/4
f 3/48/4 4/41/4 18/44/4 17/1/4
f 9/34/8 16/51/8 15/39/8 10/38/8
f 11/42/9 14/46/9 13/52/9 12/33/9
f 9/34/10 12/33/10 13/52/10 16/51/10
f 72/53/7 57/54/7 18/44/7 23/43/7
f 22/50/6 19/49/6 64/55/6 65/56/6
f 71/57/10 24/36/10 21/35/10 66/58/10
f 66/58/8 21/35/8 22/59/8 65/60/8
f 24/36/9 71/57/9 72/61/9 23/62/9
f 25/63/7 30/64/7 38/15/7 33/14/7
f 14/46/4 5/45/4 28/65/4 31/66/4
f 15/39/4 16/51/4 29/67/4 30/64/4
f 8/40/4 15/39/4 30/64/4 25/63/4
f 5/45/4 6/29/4 27/32/4 28/65/4
f 13/52/4 14/46/4 31/66/4 32/68/4
f 16/51/4 13/52/4 32/68/4 29/67/4
f 7/30/4 8/40/4 25/63/4 26/31/4
f 32/68/11 31/66/11 39/10/11 40/9/11
f 27/32/10 26/31/10 34/13/10 35/12/10
f 26/31/12 25/63/12 33/14/12 34/13/12
f 31/66/6 28/65/6 36/11/6 39/10/6
f 29/67/1 32/68/1 40/9/1 37/16/1
f 30/64/13 29/67/13 37/16/13 38/15/13
f 28/65/14 27/32/14 35/12/14 36/11/14
f 46/69/5 75/70/5 74/71/5 47/72/5
f 52/73/5 70/74/5 67/75/5 49/76/5
f 41/77/6 48/78/6 55/79/6 50/80/6
f 44/81/5 60/82/5 69/83/5 51/84/5
f 51/84/7 54/85/7 45/86/7 44/81/7
f 42/87/5 62/18/5 59/17/5 43/88/5
f 51/84/5 69/83/5 70/74/5 52/73/5
f 50/80/5 68/89/5 61/90/5 41/77/5
f 49/76/5 67/75/5 68/89/5 50/80/5
f 47/72/3 48/78/3 41/77/3 42/87/3
f 45/86/2 46/69/2 43/88/2 44/81/2
f 43/88/1 46/69/1 47/72/1 42/87/1
f 41/77/5 61/90/5 62/18/5 42/87/5
f 43/88/5 59/17/5 60/82/5 44/81/5
f 49/76/8 50/80/8 55/79/8 56/91/8
f 51/84/9 52/73/9 53/92/9 54/85/9
f 49/76/10 56/91/10 53/92/10 52/73/10
f 72/53/7 69/83/7 60/82/7 57/54/7
f 68/89/6 65/56/6 64/55/6 61/90/6
f 71/57/10 66/58/10 67/75/10 70/74/10
f 66/58/8 65/60/8 68/93/8 67/75/8
f 70/74/9 69/94/9 72/61/9 71/57/9
f 73/95/7 81/24/7 86/23/7 78/96/7
f 54/85/5 79/97/5 76/98/5 45/86/5
f 55/79/5 78/96/5 77/99/5 56/91/5
f 48/78/5 73/95/5 78/96/5 55/79/5
f 45/86/5 76/98/5 75/70/5 46/69/5
f 53/92/5 80/100/5 79/97/5 54/85/5
f 56/91/5 77/99/5 80/100/5 53/92/5
f 47/72/5 74/71/5 73/95/5 48/78/5
f 80/100/11 88/21/11 87/28/11 79/97/11
f 75/70/10 83/26/10 82/25/10 74/71/10
f 74/71/12 82/25/12 81/24/12 73/95/12
f 79/97/6 87/28/6 84/27/6 76/98/6
f 77/99/1 85/22/1 88/21/1 80/100/1
f 78/96/13 86/23/13 85/22/13 77/99/13
f 76/98/14 84/27/14 83/26/14 75/70/14
